<!--?xml version="1.0" standalone="no"?-->              
<svg id="sw-js-blob-svg" viewBox="0 0 100 100" xmlns="http://www.w3.org/2000/svg">                    
    <defs>                         
        <linearGradient id="sw-gradient" x1="0" x2="1" y1="1" y2="0">                            
            <stop id="stop1" stop-color="rgba(42, 79, 79, 1)" offset="0%"></stop>                           
            <stop id="stop2" stop-color="rgba(251, 168, 31, 1)" offset="100%"></stop>   
        </linearGradient> 
        <pattern id="img" patterUnits="userSpaceOnUse" width="100%" height="100%">
            <image href="beans.JPG" x="0" y="0" width="100" height="100"/>
        </pattern>
    </defs>                
    
    <path xmlns="http://www.w3.org/2000/svg" fill="url(#img)" d="M20.3,-35.6C26.3,-31.8,31,-26.2,34.3,-20C37.6,-13.8,39.4,-6.9,39.4,0C39.4,6.9,37.6,13.8,34.8,20.8C31.9,27.8,28.1,34.8,22.1,38.5C16.1,42.2,8.1,42.5,0.6,41.5C-6.8,40.4,-13.6,37.9,-20.6,34.8C-27.6,31.7,-34.8,27.9,-37.8,22C-40.7,16.2,-39.5,8.1,-38.7,0.5C-37.9,-7.1,-37.5,-14.2,-34.3,-19.8C-31.1,-25.3,-25.1,-29.3,-19,-33C-12.8,-36.6,-6.4,-40.1,0.4,-40.7C7.2,-41.4,14.4,-39.4,20.3,-35.6Z" width="100%" height="100%" transform="translate(50 50)" stroke-width="1" style="transition: all 0.3s ease 0s;" stroke="url(#sw-gradient)"/>
</svg>