<?xml version="1.0" encoding="iso-8859-1"?>
<!-- Generator: Adobe Illustrator 19.0.0, SVG Export Plug-In . SVG Version: 6.00 Build 0)  -->
<svg version="1.1" id="Layer_1" xmlns="http://www.w3.org/2000/svg" xmlns:xlink="http://www.w3.org/1999/xlink" x="0px" y="0px"
	 viewBox="0 0 512 512" style="enable-background:new 0 0 512 512;" stroke="#686230" fill="#686230" xml:space="preserve">
<g>
	<g>
		<path d="M256,398.222c-20.917,0-37.926,17.009-37.926,37.926s17.009,37.926,37.926,37.926s37.926-17.009,37.926-37.926
			S276.917,398.222,256,398.222z M256,455.111c-10.454,0-18.963-8.509-18.963-18.963c0-10.454,8.509-18.963,18.963-18.963
			s18.963,8.509,18.963,18.963C274.963,446.602,266.454,455.111,256,455.111z"/>
	</g>
</g>
<g>
	<g>
		<path d="M360.333,0H151.667c-20.889,0-37.889,17.019-37.889,37.944v47.389v388.676c0,20.944,17,37.991,37.889,37.991h208.667
			c20.889,0,37.889-17.046,37.889-37.991V85.333V37.944C398.222,17.019,381.222,0,360.333,0z M379.259,474.009
			c0,10.491-8.491,19.028-18.926,19.028H151.667c-10.435,0-18.926-8.537-18.926-19.028V94.815h246.519V474.009z M379.259,75.852
			H132.741V37.944c0-10.463,8.491-18.981,18.926-18.981h208.667c10.435,0,18.926,8.519,18.926,18.981V75.852z"/>
	</g>
</g>
<g>
	<g>
		<rect x="208.593" y="37.926" width="56.889" height="18.963"/>
	</g>
</g>
<g>
	<g>
		<rect x="284.444" y="37.926" width="28.444" height="18.963"/>
	</g>
</g>
<g>
</g>
<g>
</g>
<g>
</g>
<g>
</g>
<g>
</g>
<g>
</g>
<g>
</g>
<g>
</g>
<g>
</g>
<g>
</g>
<g>
</g>
<g>
</g>
<g>
</g>
<g>
</g>
<g>
</g>
</svg>
