<?xml version="1.0" encoding="iso-8859-1"?>
<!-- Generator: Adobe Illustrator 19.0.0, SVG Export Plug-In . SVG Version: 6.00 Build 0)  -->
<svg version="1.1" id="Layer_1" xmlns="http://www.w3.org/2000/svg" xmlns:xlink="http://www.w3.org/1999/xlink" x="0px" y="0px"
	 viewBox="0 0 512 512" style="enable-background:new 0 0 512 512;" stroke="#edbd9b" fill="#edbd9b" xml:space="preserve">
<g>
	<g>
		<g>
			<path d="M146.125,119.398c5.444,0,10.615-2.628,13.815-7.031c5.53-7.612,3.831-18.304-3.789-23.842
				c-7.347-5.333-18.5-3.55-23.834,3.789c-5.521,7.62-3.823,18.304,3.789,23.834C139.034,118.272,142.507,119.398,146.125,119.398z"
				/>
			<path d="M65.877,299.196c-3.686,2.688-6.118,6.639-6.827,11.145s0.375,9.011,3.063,12.689c3.2,4.403,8.354,7.031,13.807,7.031
				c3.618,0,7.083-1.118,10.035-3.26c7.586-5.53,9.284-16.222,3.755-23.842C84.395,295.629,73.207,293.845,65.877,299.196z
				 M75.921,321.527l-0.009-8.525l0.017-0.009L75.921,321.527z"/>
			<path d="M503.467,494.933H256C124.245,494.933,17.067,387.746,17.067,256C17.067,124.245,124.245,17.067,256,17.067
				c131.746,0,238.933,107.179,238.933,238.933c0,84.326-43.128,160.785-115.354,204.527c-4.036,2.441-5.325,7.689-2.884,11.725
				c2.449,4.036,7.723,5.316,11.716,2.876C465.792,428.271,512,346.342,512,256C512,114.842,397.158,0,256,0S0,114.842,0,256
				s114.842,256,256,256h247.467c4.71,0,8.533-3.823,8.533-8.533C512,498.748,508.177,494.933,503.467,494.933z"/>
			<path d="M126.157,282.095c29.653,0,55.748-18.97,64.922-47.198c11.622-35.797-8.03-74.385-43.836-86.016
				c-6.852-2.227-13.952-3.354-21.103-3.354c-29.662,0-55.74,18.961-64.913,47.181c-11.631,35.797,8.03,74.394,43.827,86.033
				C111.906,280.96,119.006,282.095,126.157,282.095z M77.466,197.982c6.869-21.171,26.428-35.388,48.674-35.388
				c5.359,0,10.684,0.845,15.838,2.517c26.846,8.721,41.583,37.666,32.87,64.512c-6.886,21.171-26.453,35.405-48.691,35.405
				c-5.359,0-10.684-0.853-15.829-2.526C83.482,253.781,68.736,224.836,77.466,197.982z"/>
			<path d="M254.558,461.952c1.792,0,3.567-0.282,5.282-0.836c8.934-2.91,13.85-12.552,10.957-21.513
				c-2.85-8.755-12.74-13.807-21.513-10.948c-4.326,1.408-7.851,4.412-9.933,8.482c-2.065,4.062-2.432,8.687-1.024,13.013
				C240.614,457.207,247.125,461.952,254.558,461.952z"/>
			<path d="M135.62,421.675c11.75,8.542,25.617,13.047,40.09,13.047c21.803,0,42.462-10.522,55.279-28.143
				c22.11-30.464,15.334-73.233-15.113-95.36c-11.75-8.533-25.609-13.039-40.073-13.039c-21.82,0-42.47,10.522-55.27,28.143
				c-10.726,14.754-15.061,32.794-12.211,50.799C111.172,395.136,120.866,410.957,135.62,421.675z M134.332,336.358
				c9.609-13.227,25.105-21.111,41.472-21.111c10.846,0,21.231,3.379,30.046,9.779c22.827,16.589,27.904,48.683,11.332,71.518
				c-9.609,13.227-25.114,21.112-41.472,21.112c-10.846,0-21.239-3.388-30.054-9.788c-11.068-8.038-18.347-19.908-20.489-33.408
				C123.034,360.951,126.285,347.418,134.332,336.358z"/>
			<path d="M336.299,434.722h0.009c14.464,0,28.322-4.514,40.064-13.047c30.447-22.118,37.231-64.896,15.104-95.351
				c-12.8-17.63-33.468-28.143-55.279-28.143c-14.473,0-28.331,4.506-40.073,13.039c-30.455,22.127-37.231,64.896-15.104,95.351
				C293.82,424.201,314.487,434.714,336.299,434.722z M306.15,325.026c8.815-6.4,19.191-9.779,30.046-9.779
				c16.358,0,31.863,7.893,41.472,21.103c16.597,22.844,11.511,54.929-11.332,71.518c-8.806,6.4-19.191,9.788-30.029,9.788h-0.009
				c-16.367,0-31.872-7.893-41.481-21.12C278.238,373.7,283.315,341.615,306.15,325.026z"/>
			<path d="M221.867,256c0,18.816,15.3,34.133,34.133,34.133c18.825,0,34.133-15.317,34.133-34.133
				c0-18.825-15.309-34.133-34.133-34.133C237.167,221.867,221.867,237.175,221.867,256z M273.067,256
				c0,9.412-7.663,17.067-17.067,17.067c-9.412,0-17.067-7.654-17.067-17.067c0-9.412,7.654-17.067,17.067-17.067
				C265.404,238.933,273.067,246.588,273.067,256z"/>
			<path d="M368.188,121.088c7.424,0,13.952-4.745,16.222-11.793c2.91-8.943-1.997-18.594-10.982-21.513
				c-8.789-2.833-18.645,2.227-21.47,10.982c-2.901,8.943,2.022,18.586,10.965,21.487
				C364.629,120.806,366.404,121.088,368.188,121.088z"/>
			<path d="M320.913,234.897c9.173,28.228,35.26,47.189,64.913,47.189c7.151,0,14.251-1.135,21.111-3.354
				c17.348-5.641,31.462-17.69,39.731-33.929c8.286-16.247,9.737-34.748,4.105-52.096c-9.173-28.228-35.26-47.189-64.913-47.189
				c-7.151,0-14.251,1.126-21.112,3.354C328.951,160.512,309.291,199.1,320.913,234.897z M370.022,165.103
				c5.154-1.673,10.479-2.517,15.838-2.517c22.238,0,41.796,14.225,48.674,35.396c4.233,13.013,3.149,26.889-3.063,39.066
				c-6.221,12.186-16.794,21.222-29.798,25.446c-5.163,1.681-10.487,2.526-15.846,2.526c-22.238,0-41.796-14.225-48.683-35.396
				C328.431,202.778,343.177,173.833,370.022,165.103z"/>
			<path d="M256,51.2c-37.649,0-68.267,30.618-68.267,68.267c0,37.64,30.618,68.267,68.267,68.267
				c37.641,0,68.267-30.626,68.267-68.267C324.267,81.818,293.641,51.2,256,51.2z M256,170.667c-28.237,0-51.2-22.972-51.2-51.2
				c0-28.237,22.963-51.2,51.2-51.2c28.228,0,51.2,22.963,51.2,51.2C307.2,147.695,284.228,170.667,256,170.667z"/>
			<path d="M418.133,315.733c0,9.412,7.654,17.067,17.067,17.067c9.404,0,17.067-7.654,17.067-17.067
				c0-9.412-7.663-17.067-17.067-17.067C425.788,298.667,418.133,306.321,418.133,315.733z"/>
		</g>
	</g>
</g>
<g>
</g>
<g>
</g>
<g>
</g>
<g>
</g>
<g>
</g>
<g>
</g>
<g>
</g>
<g>
</g>
<g>
</g>
<g>
</g>
<g>
</g>
<g>
</g>
<g>
</g>
<g>
</g>
<g>
</g>
</svg>
