<!--?xml version="1.0" standalone="no"?-->              <svg id="sw-js-blob-svg" viewBox="0 0 100 100" xmlns="http://www.w3.org/2000/svg">                    <defs>                         <linearGradient id="sw-gradient" x1="0" x2="1" y1="1" y2="0">                            <stop id="stop1" stop-color="rgba(138, 74, 39, 1)" offset="0%"></stop>                            <stop id="stop2" stop-color="rgba(138, 74, 39, 1)" offset="100%"></stop>                        </linearGradient>                    </defs>                <path fill="url(#sw-gradient)" d="M7.4,-11.1C12,-10.2,19.7,-13,26.1,-11.8C32.6,-10.6,37.7,-5.3,38.4,0.4C39.1,6.1,35.3,12.1,30.7,16.6C26.2,21.1,20.8,23.9,15.6,24C10.3,24.1,5.1,21.5,-0.8,22.8C-6.7,24.2,-13.5,29.6,-16.8,28.4C-20.2,27.2,-20.2,19.4,-24.7,13.6C-29.1,7.8,-38,3.9,-37.8,0.2C-37.5,-3.6,-28,-7.1,-23.5,-12.9C-19.1,-18.7,-19.6,-26.8,-16.5,-28.5C-13.4,-30.1,-6.7,-25.4,-2.6,-20.8C1.4,-16.3,2.9,-11.9,7.4,-11.1Z" width="100%" height="100%" transform="translate(50 50)" stroke-width="0" style="transition: all 0.3s ease 0s;" stroke="url(#sw-gradient)"></path>              </svg>